#N canvas 166 117 1096 730 12;
#X obj 178 48 hsl 155 55 0 1 0 0 empty empty empty -2 -8 0 10 -1 -258113
-1 3500 1;
#X text 256 28 potenA 0...1;
#X obj 179 126 s Pot_A @owl A;
#X obj 732 55 hsl 139 42 0 1 0 0 empty empty empty -2 -8 0 10 -1 -258113
-1 9200 1;
#X obj 733 111 s Pot_B @owl B;
#X obj 935 49 nbx 3 26 -1e+37 1e+37 0 0 empty empty empty 0 -8 0 20
-203904 -1 -1 555 256 0;
#X obj 551 245 hsl 136 30 0 1 0 0 empty empty empty -2 -8 0 10 -1 -258113
-1 950 1;
#X obj 551 289 s Pot_C @owl C;
#X obj 763 247 hsl 131 29 0 1 0 0 empty empty empty -2 -8 0 10 -1 -258113
-1 7400 1;
#X obj 764 291 s Pot_D @owl D;
#X obj 25 271 metro 111;
#X obj 13 199 tgl 48 0 empty empty empty 17 7 0 10 -228856 -1 -1 0
1;
#X obj 26 366 s Button_1 @owl B1;
#X obj 348 579 hsl 128 15 0 1 0 0 empty empty empty -2 -8 0 10 -203904
-1 -1 2413 1;
#X obj 349 506 hsl 128 15 0 1 0 0 empty empty empty -2 -8 0 10 -203904
-1 -1 1016 1;
#X obj 348 550 r CV_OUT_2 @owl G;
#X obj 350 475 r CV_OUT_1 @owl F;
#X obj 26 328 bng 23 250 50 0 empty empty empty 17 7 0 10 -232576 -1
-1;
#X obj 239 276 bng 50 250 50 0 empty empty empty 17 7 0 10 -203904
-1 -1;
#X obj 240 343 s Button_2 @owl B2;
#X msg 320 612 Generated CVS on the Outputs CV OUT 1 & CV OUT 2;
#X obj 725 582 hsl 128 15 0 100 0 0 empty empty empty -2 -8 0 10 -203904
-1 -1 0 1;
#X msg 25 395 CV IN L CLOCK SIMULATION;
#X obj 935 24 r delaitime;
#X obj 374 54 hradio 15 1 0 8 empty empty empty 0 -8 0 10 -203904 -1
-1 6;
#X obj 329 310 nbx 5 14 -1e+37 1e+37 0 0 empty empty empty 0 -8 0 10
-203904 -1 -1 128 256 0;
#X obj 773 562 r envadc2;
#X obj 728 503 hsl 128 15 0 100 0 0 empty empty empty -2 -8 0 10 -203904
-1 -1 0 1;
#X obj 776 483 r envadc1;
#X msg 641 450 VISUALIZING IN L and IN R incoming envelopes;
#X obj 328 277 r decaytimeadc;
#X obj 331 252 nbx 5 14 -1e+37 1e+37 0 0 empty empty empty 0 -8 0 10
-203904 -1 -1 112 256 0;
#X obj 330 219 r decaytime;
#X msg 238 375 BUtton 2 changes decay time;
#X text 941 264 feedback;
#X obj 374 23 r valueknobA;
#X text 553 185 tone osc;
#X text 599 217 potenC 0...1;
#X text 809 214 potenD 0...1;
#X text 783 30 potenB 0...1;
#X connect 0 0 2 0;
#X connect 3 0 4 0;
#X connect 6 0 7 0;
#X connect 8 0 9 0;
#X connect 10 0 17 0;
#X connect 11 0 10 0;
#X connect 15 0 13 0;
#X connect 16 0 14 0;
#X connect 17 0 12 0;
#X connect 18 0 19 0;
#X connect 23 0 5 0;
#X connect 26 0 21 0;
#X connect 28 0 27 0;
#X connect 30 0 25 0;
#X connect 32 0 31 0;
#X connect 35 0 24 0;
